<?xml version="1.0" standalone="no"?><!DOCTYPE svg PUBLIC "-//W3C//DTD SVG 1.1//EN" "http://www.w3.org/Graphics/SVG/1.1/DTD/svg11.dtd"><svg t="1718009766349" class="icon" viewBox="0 0 1024 1024" version="1.1" xmlns="http://www.w3.org/2000/svg" p-id="47608" xmlns:xlink="http://www.w3.org/1999/xlink" width="200" height="200"><path d="M1001.712981 818.777968l-45.025998-26.231999a173.687993 173.687993 0 0 0 0-87.340997l44.995998-26.232999a17.769999 17.769999 0 0 0 7.53-21.864999 239.254991 239.254991 0 0 0-29.635999-51.862998 17.287999 17.287999 0 0 0-22.407999-4.336999L912.142984 627.199976a168.116993 168.116993 0 0 0-74.751997-43.669999v-52.555998a17.527999 17.527999 0 0 0-15.057999-17.497999 231.724991 231.724991 0 0 0-59.181998 0 17.467999 17.467999 0 0 0-15.057999 17.497999v52.554998A168.025993 168.025993 0 0 0 673.369994 627.199976l-44.965999-26.262999a17.347999 17.347999 0 0 0-22.527999 4.397999 236.573991 236.573991 0 0 0-29.635999 51.861998 17.679999 17.679999 0 0 0 7.5 21.834999l45.024998 26.262999a172.302993 172.302993 0 0 0-5.540999 46.109999 170.013993 170.013993 0 0 0 5.631999 41.200998L583.679997 818.869968a17.769999 17.769999 0 0 0-7.499 21.954999 239.495991 239.495991 0 0 0 29.635999 51.892998 17.347999 17.347999 0 0 0 22.406999 4.307l45.176999-26.382999a168.959993 168.959993 0 0 0 74.509997 43.699998v52.555998a17.527999 17.527999 0 0 0 15.059999 17.498 234.525991 234.525991 0 0 0 59.179998 0 17.497999 17.497999 0 0 0 15.059999-17.498v-52.554998a168.236993 168.236993 0 0 0 74.751997-43.669998l44.964999 26.231999a17.347999 17.347999 0 0 0 22.527999-4.368 237.929991 237.929991 0 0 0 29.545999-51.711998 17.769999 17.769999 0 0 0-7.289-22.045999zM872.719986 750.471971a79.931997 79.931997 0 0 1-78.666997 79.599997h-2.35a80.837997 80.837997 0 1 1 1.145-161.670994h1.175a80.473997 80.473997 0 0 1 78.696997 82.069997zM973.914982 0H49.995018A50.265998 50.265998 0 0 0 0.06202 50.536998v922.925964A50.295998 50.295998 0 0 0 49.996018 1023.99996h483.296981a44.001998 44.001998 0 0 0 31.412999-13.130999 45.175998 45.175998 0 0 0-31.502999-77.070997H89.058017V386.859985h845.703966v53.909998a45.175998 45.175998 0 0 0 13.643 31.623999 44.061998 44.061998 0 0 0 31.773999 12.619999 44.784998 44.784998 0 0 0 43.729998-44.393998V50.597998A50.386998 50.386998 0 0 0 973.915982 0z m-39.152999 90.201996V296.599988H89.058017V90.201996z m-511.99998 172.122994a68.909997 68.909997 0 1 0-68.065997-69.722998v0.814a68.607997 68.607997 0 0 0 68.065997 68.908998z m-208.624991 0a69.269997 69.269997 0 0 0 48.187998-117.639996 67.402997 67.402997 0 0 0-48.187998-20.299999h-0.18a67.252997 67.252997 0 0 0-48.007998 20.059999 69.269997 69.269997 0 0 0 48.187998 117.879996z" p-id="47609"></path></svg>