<?xml version="1.0" standalone="no"?><!DOCTYPE svg PUBLIC "-//W3C//DTD SVG 1.1//EN" "http://www.w3.org/Graphics/SVG/1.1/DTD/svg11.dtd"><svg t="1719066387289" class="icon" viewBox="0 0 1024 1024" version="1.1" xmlns="http://www.w3.org/2000/svg" p-id="2478" xmlns:xlink="http://www.w3.org/1999/xlink" width="200" height="200"><path d="M768 85.333333H256a128 128 0 0 0-128 128v469.333334a128 128 0 0 0 128 128h110.506667l115.2 115.626666A42.666667 42.666667 0 0 0 512 938.666667a42.666667 42.666667 0 0 0 27.733333-10.24L677.12 810.666667H768a128 128 0 0 0 128-128V213.333333a128 128 0 0 0-128-128z m42.666667 597.333334a42.666667 42.666667 0 0 1-42.666667 42.666666h-106.666667a42.666667 42.666667 0 0 0-27.733333 10.24l-119.466667 102.4-99.84-100.266666A42.666667 42.666667 0 0 0 384 725.333333H256a42.666667 42.666667 0 0 1-42.666667-42.666666V213.333333a42.666667 42.666667 0 0 1 42.666667-42.666666h512a42.666667 42.666667 0 0 1 42.666667 42.666666z" p-id="2479"></path></svg>