<?xml version="1.0" standalone="no"?><!DOCTYPE svg PUBLIC "-//W3C//DTD SVG 1.1//EN" "http://www.w3.org/Graphics/SVG/1.1/DTD/svg11.dtd"><svg t="1718010527596" class="icon" viewBox="0 0 1027 1024" version="1.1" xmlns="http://www.w3.org/2000/svg" p-id="56072" xmlns:xlink="http://www.w3.org/1999/xlink" width="200.5859375" height="200"><path d="M673.282125 322.108212A95.673812 95.673812 0 1 1 577.608313 417.782024 95.673812 95.673812 0 0 1 673.282125 322.108212zM258.695606 417.782024A95.673812 95.673812 0 1 1 354.369418 513.455837 95.673812 95.673812 0 0 1 258.695606 417.782024z m414.586519 200.596093l90.571208 90.507426a315.532232 315.532232 0 0 1-500.69295 0l90.571209-90.507426a190.901146 190.901146 0 0 0 319.869445 0z m301.500073 112.129708l-99.054287-98.990504a381.929858 381.929858 0 1 0-156.841269 204.104132l92.038207 92.038207a511.98246 511.98246 0 1 1 164.176262-197.343183z" p-id="56073"></path></svg>