<?xml version="1.0" encoding="UTF-8" ?>
<!DOCTYPE svg PUBLIC "-//W3C//DTD SVG 1.1//EN" "http://www.w3.org/Graphics/SVG/1.1/DTD/svg11.dtd">
<svg width="626pt" height="235pt" viewBox="0 0 626 235" version="1.1" xmlns="http://www.w3.org/2000/svg">
<g id="#ffffffff">
<path fill="#ffffff" opacity="1.00" d=" M 18.83 80.87 C 26.75 79.10 34.93 79.01 43.00 78.71 C 46.19 78.76 49.48 78.17 52.57 79.21 C 52.65 79.68 52.80 80.61 52.88 81.07 C 53.24 106.04 52.89 131.02 53.06 155.99 C 53.22 160.27 53.33 164.82 55.53 168.63 C 56.67 170.89 60.84 169.97 60.88 172.95 C 61.02 176.19 61.47 179.62 60.47 182.76 C 60.09 182.98 59.32 183.43 58.94 183.65 C 45.62 183.62 30.88 182.41 20.32 173.35 C 15.02 168.42 12.65 161.14 12.71 154.02 C 12.66 131.68 12.69 109.34 12.69 87.01 C 12.22 83.42 15.91 81.55 18.83 80.87 M 19.02 86.00 C 17.10 86.26 17.87 88.71 17.66 90.01 C 17.77 111.65 17.58 133.31 17.75 154.95 C 17.66 161.77 21.00 168.62 26.95 172.13 C 35.63 177.39 46.09 178.38 56.01 178.64 C 56.00 177.79 55.98 176.07 55.97 175.22 C 49.07 172.11 48.31 163.64 48.07 157.03 C 47.92 132.57 48.06 108.10 48.00 83.63 C 38.33 83.93 28.48 83.70 19.02 86.00 Z" />
<path fill="#ffffff" opacity="1.00" d=" M 459.09 88.02 C 467.91 86.10 477.01 86.11 485.99 85.85 C 500.66 85.76 516.41 85.75 529.40 93.54 C 533.26 96.28 536.77 99.73 538.67 104.13 C 541.74 110.63 541.09 118.02 541.17 125.00 C 540.99 131.99 541.98 139.33 539.13 145.95 C 535.86 153.87 528.58 159.39 520.86 162.60 C 512.05 165.96 502.47 165.80 493.19 166.07 C 492.90 174.23 493.88 182.50 492.60 190.59 C 487.40 191.22 482.16 190.76 476.94 190.61 C 470.12 190.22 463.17 189.94 456.61 187.87 C 455.55 187.42 454.56 186.85 453.55 186.33 C 453.06 184.91 452.76 183.44 452.84 181.94 C 452.89 152.61 452.82 123.28 452.87 93.95 C 452.60 90.51 456.25 88.70 459.09 88.02 M 458.29 93.48 C 458.18 94.10 457.96 95.33 457.85 95.95 C 457.89 125.00 457.83 154.05 457.88 183.09 C 467.73 185.80 478.05 185.60 488.18 185.92 C 488.23 178.61 488.10 171.29 488.22 163.99 C 488.03 162.44 489.46 161.05 490.98 161.11 C 500.33 160.73 510.02 161.29 518.95 157.98 C 525.38 155.25 531.60 150.80 534.44 144.20 C 536.94 138.46 535.95 132.05 536.15 125.98 C 535.96 118.84 537.10 111.07 533.34 104.61 C 529.37 97.77 521.52 94.57 514.17 92.85 C 501.97 90.21 489.38 90.75 476.99 91.11 C 470.73 91.51 464.31 91.54 458.29 93.48 Z" />
<path fill="#ffffff" opacity="1.00" d=" M 266.97 94.91 C 275.32 88.08 286.94 88.19 297.11 89.29 C 307.52 90.63 318.65 92.92 326.55 100.33 C 333.42 106.95 334.44 117.98 330.52 126.39 C 327.95 131.92 322.88 135.90 317.31 138.12 C 308.24 141.65 298.64 144.67 291.02 150.97 C 286.78 154.16 285.90 160.71 288.56 165.15 C 292.71 161.52 292.36 155.63 293.87 150.79 C 294.27 149.41 295.76 149.44 296.93 149.34 C 300.86 149.10 304.80 149.16 308.73 148.95 C 314.18 148.80 319.62 148.52 325.06 148.46 C 326.32 148.42 327.35 148.93 328.14 149.98 C 327.55 157.75 326.15 166.51 319.52 171.55 C 310.13 178.60 297.51 177.74 286.50 176.29 C 275.49 174.54 263.12 171.38 256.67 161.43 C 255.95 160.07 255.28 158.66 254.85 157.18 C 254.42 155.32 254.10 153.44 253.97 151.54 C 253.62 143.63 257.11 135.45 263.72 130.91 C 267.54 128.07 272.12 126.61 276.51 124.93 C 283.66 122.04 291.12 119.10 296.77 113.68 C 300.33 110.54 300.81 104.48 297.94 100.76 C 294.09 105.17 294.33 111.29 292.58 116.56 C 290.88 117.55 288.84 117.23 286.97 117.34 C 278.34 117.33 269.71 117.56 261.08 117.52 C 259.85 117.52 258.55 116.37 258.72 115.07 C 259.34 107.79 260.96 99.75 266.97 94.91 M 272.96 96.81 C 267.11 99.76 264.65 106.37 263.99 112.52 C 272.14 112.48 280.29 112.32 288.45 112.31 C 289.45 107.95 290.09 103.32 292.60 99.51 C 294.08 97.17 297.21 95.57 299.88 96.95 C 304.35 98.45 305.04 104.01 304.62 108.05 C 304.56 112.60 301.68 116.50 298.20 119.18 C 289.71 125.99 279.04 128.88 269.30 133.30 C 259.68 137.76 255.70 151.34 261.83 160.09 C 267.74 167.53 277.68 169.67 286.57 171.23 C 295.87 172.46 306.20 173.57 314.72 168.77 C 320.21 165.73 322.17 159.37 322.79 153.51 C 314.60 153.77 306.41 154.03 298.22 154.29 C 297.18 159.02 296.48 164.27 293.05 167.97 C 290.58 170.65 286.04 169.80 284.01 167.04 C 281.68 163.91 281.97 159.74 282.39 156.07 C 282.98 151.38 286.58 147.86 290.23 145.21 C 297.23 140.29 305.30 137.24 313.28 134.32 C 318.31 132.59 323.29 129.62 325.76 124.72 C 329.14 117.94 328.53 108.62 322.56 103.46 C 316.31 97.93 307.82 96.02 299.81 94.68 C 290.91 93.45 281.26 92.71 272.96 96.81 Z" />
<path fill="#ffffff" opacity="1.00" d=" M 368.07 93.99 C 375.82 93.48 384.07 91.56 391.52 94.55 L 391.70 95.21 C 392.23 97.10 392.56 99.04 392.83 100.98 C 395.66 121.69 398.63 142.38 401.44 163.08 C 402.20 166.29 398.86 168.31 396.29 169.22 C 387.78 171.95 378.87 173.12 370.04 174.31 C 359.73 175.48 348.16 175.80 339.39 169.33 C 337.56 167.65 335.90 165.75 334.82 163.50 C 332.87 159.55 332.34 155.13 331.72 150.83 C 331.33 147.41 330.73 144.02 330.36 140.60 C 329.47 133.12 333.40 125.92 339.24 121.46 C 345.79 115.95 354.64 114.80 362.80 113.46 C 362.11 107.97 361.13 102.52 360.60 97.03 C 361.29 93.57 365.55 94.66 368.07 93.99 M 365.86 99.29 C 366.56 104.86 367.63 110.39 368.04 115.98 C 367.53 118.20 364.88 118.13 363.11 118.51 C 354.61 119.72 345.12 121.23 339.32 128.26 C 335.22 132.42 334.64 138.62 335.85 144.08 C 337.32 151.12 336.39 159.63 342.10 164.98 C 348.98 170.62 358.61 170.27 366.99 169.60 C 376.84 168.42 386.79 167.13 396.25 163.98 C 396.21 160.28 395.48 156.64 395.00 152.98 C 392.50 134.78 389.87 116.59 387.44 98.37 C 380.25 97.39 373.01 98.55 365.86 99.29 Z" />
<path fill="#ffffff" opacity="1.00" d=" M 491.39 94.49 C 495.46 93.59 500.61 94.22 502.69 98.35 C 506.54 105.56 505.65 114.09 505.83 121.97 C 505.54 130.74 506.75 139.77 504.23 148.31 C 503.10 152.39 499.61 156.06 495.12 155.86 C 492.69 155.92 488.26 156.65 488.22 153.05 C 488.15 134.70 488.17 116.35 488.20 98.01 C 488.04 96.16 489.61 94.64 491.39 94.49 M 493.23 99.18 C 493.18 116.45 493.19 133.73 493.22 151.00 C 494.92 150.93 496.58 150.53 498.14 149.83 C 501.08 144.38 500.83 138.02 500.86 132.02 C 500.79 125.08 501.00 118.13 500.71 111.19 C 500.42 107.59 500.09 103.83 498.26 100.64 C 497.34 98.71 494.92 99.37 493.23 99.18 Z" />
<path fill="#ffffff" opacity="1.00" d=" M 74.56 96.64 C 80.95 95.25 87.86 98.90 90.54 104.82 C 93.63 111.76 90.55 120.92 83.27 123.71 C 86.30 123.49 89.43 123.82 92.17 125.22 C 93.45 125.93 93.79 127.43 93.89 128.77 C 95.07 139.55 96.35 150.31 97.52 161.08 C 98.32 164.33 94.76 166.19 92.21 167.05 C 85.98 168.90 79.30 169.63 72.85 168.63 C 71.04 167.89 68.73 166.82 68.82 164.51 C 67.62 153.05 66.08 141.63 65.05 130.16 C 66.07 126.50 70.49 125.70 73.63 124.71 C 73.49 124.43 73.20 123.88 73.06 123.61 L 72.66 124.72 C 67.85 122.68 63.76 118.47 63.07 113.13 C 61.55 105.70 67.14 97.88 74.56 96.64 M 75.38 101.56 C 69.16 102.57 65.75 110.47 69.22 115.72 C 72.58 121.78 82.33 121.54 85.48 115.39 C 89.82 108.82 82.87 99.63 75.38 101.56 M 70.11 131.13 C 71.36 142.04 72.42 152.97 73.90 163.85 C 80.08 164.21 86.95 164.30 92.45 161.21 C 91.36 150.46 90.08 139.73 88.83 129.00 C 82.55 128.30 76.02 128.81 70.11 131.13 Z" />
<path fill="#ffffff" opacity="1.00" d=" M 188.95 113.03 C 197.66 110.13 207.00 109.98 216.08 110.49 C 224.69 111.14 233.77 113.24 240.19 119.41 C 244.65 124.44 246.95 131.50 245.58 138.15 C 244.85 141.48 242.01 143.63 239.38 145.48 C 241.53 145.92 244.61 143.48 245.83 146.21 C 246.50 150.13 246.05 154.18 245.52 158.09 C 244.24 165.34 238.51 171.12 231.79 173.71 C 222.35 177.42 211.95 177.64 201.95 177.03 C 193.14 176.33 183.68 174.19 177.39 167.50 C 172.03 161.55 172.08 153.14 172.26 145.63 C 172.30 143.90 172.29 142.18 172.24 140.46 C 172.20 134.73 172.25 128.64 175.20 123.53 C 178.18 118.38 183.36 114.83 188.95 113.03 M 192.25 117.22 C 186.89 118.69 181.49 121.73 179.04 126.94 C 176.44 132.97 177.48 139.67 177.27 146.03 C 177.30 152.09 176.62 159.12 181.07 163.95 C 186.99 170.61 196.59 171.65 204.97 172.19 C 214.97 172.39 225.93 172.30 234.54 166.52 C 239.89 162.97 241.31 156.24 241.18 150.22 C 233.09 151.41 225.01 152.66 216.92 153.89 C 216.53 158.82 216.63 164.32 213.49 168.44 C 210.91 171.61 205.43 170.74 203.83 167.03 C 201.00 161.21 201.41 154.42 201.58 148.13 C 202.00 145.99 204.38 146.25 206.02 146.13 C 214.99 145.95 224.15 145.67 232.77 142.93 C 235.91 141.85 239.44 140.21 240.77 136.96 C 241.58 131.24 239.54 124.73 234.62 121.35 C 229.57 117.46 223.09 116.22 216.89 115.58 C 208.68 114.97 200.25 115.03 192.25 117.22 M 206.45 151.16 C 206.62 156.15 206.16 161.65 209.06 166.02 C 212.32 161.75 211.60 156.04 211.94 151.01 C 210.11 151.06 208.27 151.11 206.45 151.16 Z" />
<path fill="#ffffff" opacity="1.00" d=" M 133.40 111.72 C 141.21 110.87 149.13 110.13 156.98 110.82 C 159.14 111.18 162.23 111.43 162.89 114.02 C 163.94 123.65 165.28 133.28 165.86 142.95 C 162.13 153.80 155.77 164.75 145.23 170.17 C 135.72 175.06 123.90 173.76 115.18 167.80 C 111.34 164.99 107.79 161.77 104.86 158.01 C 102.85 155.45 100.71 152.91 99.24 149.99 C 98.13 143.14 97.73 136.18 96.85 129.29 C 96.75 125.99 95.40 122.53 96.58 119.33 C 100.65 115.99 106.23 115.57 111.18 114.48 C 116.16 113.83 121.14 112.48 126.19 112.94 C 126.51 113.85 126.78 114.78 127.00 115.73 C 128.05 124.82 128.96 133.93 129.98 143.03 C 130.59 148.22 132.47 153.13 133.76 158.17 C 134.20 152.47 135.04 146.74 134.27 141.04 C 133.45 134.06 132.80 127.07 131.96 120.10 C 132.01 117.42 129.92 112.98 133.40 111.72 M 136.61 116.37 C 137.96 132.13 141.69 148.16 137.70 163.83 C 137.19 165.88 134.76 167.70 132.77 166.29 C 130.08 163.87 129.41 160.03 128.20 156.77 C 123.77 144.30 124.10 130.88 122.21 117.92 C 115.12 118.89 107.91 119.69 101.13 122.13 C 102.09 130.73 102.84 139.36 103.99 147.93 C 107.11 153.81 111.84 158.85 117.08 162.92 C 123.90 168.21 133.49 169.81 141.49 166.37 C 149.62 162.92 155.08 155.30 158.63 147.49 C 159.65 145.10 161.29 142.68 160.73 139.95 C 159.84 131.96 159.02 123.96 158.10 115.96 C 150.95 115.07 143.75 115.80 136.61 116.37 Z" />
<path fill="#ffffff" opacity="1.00" d=" M 548.89 119.00 C 558.09 116.12 568.01 116.11 577.56 116.52 C 577.74 116.95 578.11 117.79 578.30 118.21 C 578.60 131.11 578.28 144.01 578.46 156.91 C 578.56 160.31 578.81 163.88 580.81 166.78 C 582.32 163.43 582.85 159.76 582.85 156.11 C 582.92 143.63 582.83 131.15 582.89 118.67 C 583.07 116.17 586.10 116.00 588.01 116.23 C 596.29 116.65 604.96 116.17 612.81 119.27 C 613.62 120.33 614.48 121.47 614.29 122.90 C 614.38 139.94 614.28 156.98 614.34 174.01 C 614.62 180.85 613.90 188.54 608.53 193.44 C 600.34 200.82 588.52 201.41 578.05 201.30 C 567.80 201.00 555.72 199.04 549.71 189.69 C 546.77 184.61 546.76 178.52 547.06 172.83 C 548.38 169.16 553.26 172.02 556.00 171.97 C 549.47 168.03 546.55 160.21 546.97 152.83 C 547.03 142.86 546.90 132.89 547.00 122.93 C 546.72 121.28 547.79 120.06 548.89 119.00 M 552.02 123.12 C 551.98 134.09 551.81 145.08 552.10 156.04 C 552.15 161.16 555.22 165.89 559.65 168.34 C 567.39 172.52 576.51 172.57 585.08 172.37 C 586.56 172.06 588.02 173.40 587.82 174.92 C 587.79 180.26 588.44 185.86 586.55 190.97 C 585.09 194.71 579.55 196.68 576.66 193.39 C 573.66 189.65 573.80 184.58 573.33 180.05 C 566.17 178.89 559.04 177.57 551.89 176.37 C 551.95 180.86 552.26 185.92 555.71 189.25 C 561.42 195.13 570.23 195.89 577.98 196.29 C 587.01 196.36 597.05 196.14 604.52 190.35 C 608.97 186.63 609.55 180.41 609.32 174.99 C 609.25 157.71 609.39 140.42 609.25 123.14 C 602.25 121.48 595.02 121.52 587.87 121.23 C 587.84 132.81 587.91 144.40 587.84 155.98 C 587.67 160.43 587.57 165.28 584.91 169.06 C 582.82 171.86 578.11 171.77 576.18 168.84 C 573.83 165.38 573.65 161.02 573.45 156.98 C 573.33 145.07 573.45 133.15 573.39 121.23 C 566.24 121.44 559.02 121.49 552.02 123.12 M 578.35 177.40 C 578.46 181.74 578.56 186.18 580.17 190.29 C 580.53 190.10 581.26 189.73 581.62 189.54 C 583.52 185.87 582.63 181.49 582.85 177.50 C 581.34 177.48 579.84 177.45 578.35 177.40 Z" />
<path fill="#ffffff" opacity="1.00" d=" M 203.79 120.69 C 205.10 117.90 208.53 116.43 211.41 117.72 C 214.38 119.33 215.37 122.85 215.96 125.93 C 216.79 130.77 217.14 135.73 216.61 140.62 C 212.52 141.91 208.15 141.30 203.94 141.26 C 201.63 141.40 201.36 138.71 201.44 137.02 C 201.54 131.54 201.36 125.75 203.79 120.69 M 206.44 136.35 C 208.26 136.35 210.08 136.35 211.91 136.35 C 211.43 131.51 212.12 125.88 208.83 121.88 C 206.31 126.25 206.60 131.47 206.44 136.35 Z" />
<path fill="#ffffff" opacity="1.00" d=" M 361.40 121.53 C 363.80 121.01 368.30 119.33 369.07 122.84 C 371.06 135.48 372.59 148.19 374.48 160.85 C 374.55 162.62 375.40 164.63 374.31 166.25 C 370.58 169.31 363.92 168.83 361.90 163.98 C 358.02 155.86 358.26 146.57 356.65 137.86 C 356.01 132.34 355.12 124.14 361.40 121.53 M 361.58 128.43 C 360.61 133.58 361.95 138.78 362.54 143.91 C 363.44 149.36 363.66 155.02 365.63 160.24 C 366.23 161.92 367.50 163.99 369.71 163.12 C 367.90 150.59 366.45 138.00 364.29 125.53 C 363.31 126.40 361.72 126.93 361.58 128.43 Z" />
<path fill="#ffffff" opacity="1.00" d=" M 409.24 130.53 C 409.85 127.76 411.28 123.45 414.91 124.10 C 423.71 125.24 432.72 125.36 441.38 127.30 C 441.63 127.80 442.13 128.80 442.39 129.30 C 443.66 134.31 443.02 139.64 441.67 144.56 C 440.98 146.97 439.03 149.70 436.16 148.93 C 427.56 147.91 418.87 147.46 410.34 145.99 C 407.17 141.47 408.45 135.59 409.24 130.53 M 414.78 129.10 C 413.61 133.09 413.24 137.26 413.37 141.42 C 421.14 142.43 428.94 143.17 436.74 143.89 C 437.82 139.89 438.21 135.74 438.04 131.61 C 430.31 130.61 422.53 129.95 414.78 129.10 Z" />
</g>
<g id="#0000003d">
<path fill="#000000" opacity="0.24" d=" M 52.88 81.07 C 56.31 82.34 59.55 85.17 59.48 89.12 C 59.64 113.77 59.40 138.42 59.60 163.06 C 59.60 170.08 66.84 174.16 67.37 180.98 C 67.22 184.29 66.31 188.40 62.62 189.38 C 50.43 190.44 37.31 188.92 26.98 181.88 C 24.28 179.56 20.39 177.33 20.32 173.35 C 30.88 182.41 45.62 183.62 58.94 183.65 C 59.32 183.43 60.09 182.98 60.47 182.76 C 61.47 179.62 61.02 176.19 60.88 172.95 C 60.84 169.97 56.67 170.89 55.53 168.63 C 53.33 164.82 53.22 160.27 53.06 155.99 C 52.89 131.02 53.24 106.04 52.88 81.07 Z" />
<path fill="#000000" opacity="0.24" d=" M 529.40 93.54 C 530.81 93.69 532.34 93.72 533.55 94.60 C 540.54 98.72 546.74 105.59 547.46 113.98 C 547.62 115.73 548.27 117.37 548.89 119.00 C 547.79 120.06 546.72 121.28 547.00 122.93 C 546.90 132.89 547.03 142.86 546.97 152.83 C 546.35 152.31 545.74 151.79 545.13 151.27 C 540.53 160.44 531.73 167.19 521.90 169.90 C 515.73 171.82 509.17 171.59 502.90 172.93 C 499.81 173.71 499.41 177.31 499.47 179.97 C 499.31 185.12 500.68 191.43 496.30 195.28 C 491.50 198.42 485.37 197.56 479.98 197.00 C 473.49 196.18 466.63 196.43 460.62 193.46 C 458.30 192.49 457.36 190.07 456.61 187.87 C 463.17 189.94 470.12 190.22 476.94 190.61 C 482.16 190.76 487.40 191.22 492.60 190.59 C 493.88 182.50 492.90 174.23 493.19 166.07 C 502.47 165.80 512.05 165.96 520.86 162.60 C 528.58 159.39 535.86 153.87 539.13 145.95 C 541.98 139.33 540.99 131.99 541.17 125.00 C 541.09 118.02 541.74 110.63 538.67 104.13 C 536.77 99.73 533.26 96.28 529.40 93.54 Z" />
<path fill="#000000" opacity="0.24" d=" M 391.70 95.21 C 395.53 94.95 398.16 98.48 398.65 101.95 C 400.46 111.86 401.31 121.92 402.97 131.86 C 403.61 138.62 405.36 145.22 405.68 152.01 C 406.09 157.21 408.09 162.31 407.32 167.58 C 406.46 171.56 402.65 173.78 399.05 174.92 C 389.65 177.86 379.81 178.86 370.06 179.86 C 364.07 181.18 357.99 179.77 352.08 178.74 C 347.09 177.17 341.29 174.60 339.39 169.33 C 348.16 175.80 359.73 175.48 370.04 174.31 C 378.87 173.12 387.78 171.95 396.29 169.22 C 398.86 168.31 402.20 166.29 401.44 163.08 C 398.63 142.38 395.66 121.69 392.83 100.98 C 392.56 99.04 392.23 97.10 391.70 95.21 Z" />
<path fill="#000000" opacity="0.24" d=" M 493.23 99.18 C 494.92 99.37 497.34 98.71 498.26 100.64 C 500.09 103.83 500.42 107.59 500.71 111.19 C 501.00 118.13 500.79 125.08 500.86 132.02 C 500.83 138.02 501.08 144.38 498.14 149.83 C 496.58 150.53 494.92 150.93 493.22 151.00 C 493.19 133.73 493.18 116.45 493.23 99.18 Z" />
<path fill="#000000" opacity="0.24" d=" M 326.55 100.33 C 329.66 100.65 331.53 103.42 333.47 105.54 C 337.32 109.98 337.79 116.02 339.24 121.46 C 333.40 125.92 329.47 133.12 330.36 140.60 C 323.11 143.32 316.68 148.24 308.73 148.95 C 304.80 149.16 300.86 149.10 296.93 149.34 C 295.76 149.44 294.27 149.41 293.87 150.79 C 292.36 155.63 292.71 161.52 288.56 165.15 C 285.90 160.71 286.78 154.16 291.02 150.97 C 298.64 144.67 308.24 141.65 317.31 138.12 C 322.88 135.90 327.95 131.92 330.52 126.39 C 334.44 117.98 333.42 106.95 326.55 100.33 Z" />
<path fill="#000000" opacity="0.24" d=" M 292.58 116.56 C 294.33 111.29 294.09 105.17 297.94 100.76 C 300.81 104.48 300.33 110.54 296.77 113.68 C 291.12 119.10 283.66 122.04 276.51 124.93 C 272.05 122.75 266.39 124.97 262.51 121.54 C 261.30 120.60 261.51 118.84 261.08 117.52 C 269.71 117.56 278.34 117.33 286.97 117.34 C 288.84 117.23 290.88 117.55 292.58 116.56 Z" />
<path fill="#000000" opacity="0.24" d=" M 90.54 104.82 C 94.55 105.10 95.62 109.73 95.80 113.03 C 96.23 117.43 93.83 121.33 92.17 125.22 C 89.43 123.82 86.30 123.49 83.27 123.71 C 90.55 120.92 93.63 111.76 90.54 104.82 Z" />
<path fill="#000000" opacity="0.24" d=" M 162.89 114.02 C 166.94 114.23 168.78 118.55 169.17 122.04 C 169.91 128.22 170.27 134.51 172.24 140.46 C 172.29 142.18 172.30 143.90 172.26 145.63 C 170.18 150.02 168.06 154.40 165.80 158.70 C 160.77 168.04 151.80 175.83 141.08 177.46 C 135.55 177.78 129.69 178.01 124.62 175.40 C 120.71 173.41 116.60 171.31 113.82 167.81 L 115.18 167.80 C 123.90 173.76 135.72 175.06 145.23 170.17 C 155.77 164.75 162.13 153.80 165.86 142.95 C 165.28 133.28 163.94 123.65 162.89 114.02 Z" />
<path fill="#000000" opacity="0.24" d=" M 127.00 115.73 C 128.90 116.81 131.34 117.76 131.96 120.10 C 132.80 127.07 133.45 134.06 134.27 141.04 C 135.04 146.74 134.20 152.47 133.76 158.17 C 132.47 153.13 130.59 148.22 129.98 143.03 C 128.96 133.93 128.05 124.82 127.00 115.73 Z" />
<path fill="#000000" opacity="0.24" d=" M 578.30 118.21 C 579.39 119.58 580.36 121.05 581.23 122.57 C 581.76 121.26 582.31 119.96 582.89 118.67 C 582.83 131.15 582.92 143.63 582.85 156.11 C 582.85 159.76 582.32 163.43 580.81 166.78 C 578.81 163.88 578.56 160.31 578.46 156.91 C 578.28 144.01 578.60 131.11 578.30 118.21 Z" />
<path fill="#000000" opacity="0.24" d=" M 240.19 119.41 C 243.36 119.04 245.16 121.96 247.02 123.99 C 251.64 129.51 252.45 137.20 250.93 144.04 C 250.05 146.58 251.11 149.12 251.87 151.54 C 252.39 151.54 253.44 151.54 253.97 151.54 C 254.10 153.44 254.42 155.32 254.85 157.18 C 251.01 159.66 251.63 164.81 249.23 168.29 C 246.10 174.73 239.68 178.77 233.01 180.78 C 224.97 183.60 216.34 182.31 208.00 182.59 C 197.59 183.07 186.11 180.14 179.25 171.79 C 178.08 170.65 177.46 169.13 177.39 167.50 C 183.68 174.19 193.14 176.33 201.95 177.03 C 211.95 177.64 222.35 177.42 231.79 173.71 C 238.51 171.12 244.24 165.34 245.52 158.09 C 246.05 154.18 246.50 150.13 245.83 146.21 C 244.61 143.48 241.53 145.92 239.38 145.48 C 242.01 143.63 244.85 141.48 245.58 138.15 C 246.95 131.50 244.65 124.44 240.19 119.41 Z" />
<path fill="#000000" opacity="0.24" d=" M 612.81 119.27 C 615.74 119.53 618.81 120.97 619.92 123.87 C 621.80 134.48 621.17 145.28 621.25 156.01 C 620.98 163.99 621.87 172.05 620.72 179.97 C 619.91 184.02 621.13 188.46 618.88 192.17 C 614.15 203.12 601.14 207.83 589.94 207.38 C 582.24 207.05 574.27 208.37 566.82 205.83 C 559.74 203.82 552.76 199.42 549.81 192.41 C 549.71 191.51 549.68 190.60 549.71 189.69 C 555.72 199.04 567.80 201.00 578.05 201.30 C 588.52 201.41 600.34 200.82 608.53 193.44 C 613.90 188.54 614.62 180.85 614.34 174.01 C 614.28 156.98 614.38 139.94 614.29 122.90 C 614.48 121.47 613.62 120.33 612.81 119.27 Z" />
<path fill="#000000" opacity="0.24" d=" M 206.44 136.35 C 206.60 131.47 206.31 126.25 208.83 121.88 C 212.12 125.88 211.43 131.51 211.91 136.35 C 210.08 136.35 208.26 136.35 206.44 136.35 Z" />
<path fill="#000000" opacity="0.24" d=" M 361.58 128.43 C 361.72 126.93 363.31 126.40 364.29 125.53 C 366.45 138.00 367.90 150.59 369.71 163.12 C 367.50 163.99 366.23 161.92 365.63 160.24 C 363.66 155.02 363.44 149.36 362.54 143.91 C 361.95 138.78 360.61 133.58 361.58 128.43 Z" />
<path fill="#000000" opacity="0.24" d=" M 93.89 128.77 C 94.63 128.90 96.11 129.16 96.85 129.29 C 97.73 136.18 98.13 143.14 99.24 149.99 C 100.71 152.91 102.85 155.45 104.86 158.01 C 101.78 161.07 103.41 166.22 99.93 168.97 C 96.17 172.33 90.78 172.80 85.99 173.47 C 81.37 173.79 74.73 173.90 72.85 168.63 C 79.30 169.63 85.98 168.90 92.21 167.05 C 94.76 166.19 98.32 164.33 97.52 161.08 C 96.35 150.31 95.07 139.55 93.89 128.77 Z" />
<path fill="#000000" opacity="0.24" d=" M 442.39 129.30 C 445.05 129.71 446.73 132.43 446.57 135.00 C 446.47 139.92 447.44 145.34 444.73 149.76 C 443.21 152.67 439.57 153.79 436.48 153.39 C 429.34 152.29 422.06 152.25 414.96 150.89 C 412.65 150.27 410.55 148.49 410.34 145.99 C 418.87 147.46 427.56 147.91 436.16 148.93 C 439.03 149.70 440.98 146.97 441.67 144.56 C 443.02 139.64 443.66 134.31 442.39 129.30 Z" />
<path fill="#000000" opacity="0.24" d=" M 328.14 149.98 C 329.03 150.98 329.88 152.00 330.76 153.01 C 331.00 152.46 331.48 151.37 331.72 150.83 C 332.34 155.13 332.87 159.55 334.82 163.50 C 330.73 166.84 329.95 172.54 326.10 176.07 C 322.09 179.94 316.73 182.29 311.28 183.25 C 297.71 184.24 283.57 183.57 271.02 177.82 C 266.44 175.79 262.61 172.40 259.48 168.55 C 257.89 166.51 256.26 164.16 256.67 161.43 C 263.12 171.38 275.49 174.54 286.50 176.29 C 297.51 177.74 310.13 178.60 319.52 171.55 C 326.15 166.51 327.55 157.75 328.14 149.98 Z" />
<path fill="#000000" opacity="0.24" d=" M 206.45 151.16 C 208.27 151.11 210.11 151.06 211.94 151.01 C 211.60 156.04 212.32 161.75 209.06 166.02 C 206.16 161.65 206.62 156.15 206.45 151.16 Z" />
<path fill="#000000" opacity="0.24" d=" M 578.35 177.40 C 579.84 177.45 581.34 177.48 582.85 177.50 C 582.63 181.49 583.52 185.87 581.62 189.54 C 581.26 189.73 580.53 190.10 580.17 190.29 C 578.56 186.18 578.46 181.74 578.35 177.40 Z" />
</g>
<g id="#ffc000ff">
<path fill="#ffc000" opacity="1.00" d=" M 19.02 86.00 C 28.48 83.70 38.33 83.93 48.00 83.63 C 48.06 108.10 47.92 132.57 48.07 157.03 C 48.31 163.64 49.07 172.11 55.97 175.22 C 55.98 176.07 56.00 177.79 56.01 178.64 C 46.09 178.38 35.63 177.39 26.95 172.13 C 21.00 168.62 17.66 161.77 17.75 154.95 C 17.58 133.31 17.77 111.65 17.66 90.01 C 17.87 88.71 17.10 86.26 19.02 86.00 Z" />
<path fill="#ffc000" opacity="1.00" d=" M 75.38 101.56 C 82.87 99.63 89.82 108.82 85.48 115.39 C 82.33 121.54 72.58 121.78 69.22 115.72 C 65.75 110.47 69.16 102.57 75.38 101.56 Z" />
<path fill="#ffc000" opacity="1.00" d=" M 192.25 117.22 C 200.25 115.03 208.68 114.97 216.89 115.58 C 223.09 116.22 229.57 117.46 234.62 121.35 C 239.54 124.73 241.58 131.24 240.77 136.96 C 239.44 140.21 235.91 141.85 232.77 142.93 C 224.15 145.67 214.99 145.95 206.02 146.13 C 204.38 146.25 202.00 145.99 201.58 148.13 C 201.41 154.42 201.00 161.21 203.83 167.03 C 205.43 170.74 210.91 171.61 213.49 168.44 C 216.63 164.32 216.53 158.82 216.92 153.89 C 225.01 152.66 233.09 151.41 241.18 150.22 C 241.31 156.24 239.89 162.97 234.54 166.52 C 225.93 172.30 214.97 172.39 204.97 172.19 C 196.59 171.65 186.99 170.61 181.07 163.95 C 176.62 159.12 177.30 152.09 177.27 146.03 C 177.48 139.67 176.44 132.97 179.04 126.94 C 181.49 121.73 186.89 118.69 192.25 117.22 M 203.79 120.69 C 201.36 125.75 201.54 131.54 201.44 137.02 C 201.36 138.71 201.63 141.40 203.94 141.26 C 208.15 141.30 212.52 141.91 216.61 140.62 C 217.14 135.73 216.79 130.77 215.96 125.93 C 215.37 122.85 214.38 119.33 211.41 117.72 C 208.53 116.43 205.10 117.90 203.79 120.69 Z" />
<path fill="#ffc000" opacity="1.00" d=" M 136.61 116.37 C 143.75 115.80 150.95 115.07 158.10 115.96 C 159.02 123.96 159.84 131.96 160.73 139.95 C 161.29 142.68 159.65 145.10 158.63 147.49 C 155.08 155.30 149.62 162.92 141.49 166.37 C 133.49 169.81 123.90 168.21 117.08 162.92 C 111.84 158.85 107.11 153.81 103.99 147.93 C 102.84 139.36 102.09 130.73 101.13 122.13 C 107.91 119.69 115.12 118.89 122.21 117.92 C 124.10 130.88 123.77 144.30 128.20 156.77 C 129.41 160.03 130.08 163.87 132.77 166.29 C 134.76 167.70 137.19 165.88 137.70 163.83 C 141.69 148.16 137.96 132.13 136.61 116.37 Z" />
<path fill="#ffc000" opacity="1.00" d=" M 70.11 131.13 C 76.02 128.81 82.55 128.30 88.83 129.00 C 90.08 139.73 91.36 150.46 92.45 161.21 C 86.95 164.30 80.08 164.21 73.90 163.85 C 72.42 152.97 71.36 142.04 70.11 131.13 Z" />
</g>
<g id="#2e75b6ff">
<path fill="#2e75b6" opacity="1.00" d=" M 458.29 93.48 C 464.31 91.54 470.73 91.51 476.99 91.11 C 489.38 90.75 501.97 90.21 514.17 92.85 C 521.52 94.57 529.37 97.77 533.34 104.61 C 537.10 111.07 535.96 118.84 536.15 125.98 C 535.95 132.05 536.94 138.46 534.44 144.20 C 531.60 150.80 525.38 155.25 518.95 157.98 C 510.02 161.29 500.33 160.73 490.98 161.11 C 489.46 161.05 488.03 162.44 488.22 163.99 C 488.10 171.29 488.23 178.61 488.18 185.92 C 478.05 185.60 467.73 185.80 457.88 183.09 C 457.83 154.05 457.89 125.00 457.85 95.95 C 457.96 95.33 458.18 94.10 458.29 93.48 M 491.39 94.49 C 489.61 94.64 488.04 96.16 488.20 98.01 C 488.17 116.35 488.15 134.70 488.22 153.05 C 488.26 156.65 492.69 155.92 495.12 155.86 C 499.61 156.06 503.10 152.39 504.23 148.31 C 506.75 139.77 505.54 130.74 505.83 121.97 C 505.65 114.09 506.54 105.56 502.69 98.35 C 500.61 94.22 495.46 93.59 491.39 94.49 Z" />
<path fill="#2e75b6" opacity="1.00" d=" M 552.02 123.12 C 559.02 121.49 566.24 121.44 573.39 121.23 C 573.45 133.15 573.33 145.07 573.45 156.98 C 573.65 161.02 573.83 165.38 576.18 168.84 C 578.11 171.77 582.82 171.86 584.91 169.06 C 587.57 165.28 587.67 160.43 587.84 155.98 C 587.91 144.40 587.84 132.81 587.87 121.23 C 595.02 121.52 602.25 121.48 609.25 123.14 C 609.39 140.42 609.25 157.71 609.32 174.99 C 609.55 180.41 608.97 186.63 604.52 190.35 C 597.05 196.14 587.01 196.36 577.98 196.29 C 570.23 195.89 561.42 195.13 555.71 189.25 C 552.26 185.92 551.95 180.86 551.89 176.37 C 559.04 177.57 566.17 178.89 573.33 180.05 C 573.80 184.58 573.66 189.65 576.66 193.39 C 579.55 196.68 585.09 194.71 586.55 190.97 C 588.44 185.86 587.79 180.26 587.82 174.92 C 588.02 173.40 586.56 172.06 585.08 172.37 C 576.51 172.57 567.39 172.52 559.65 168.34 C 555.22 165.89 552.15 161.16 552.10 156.04 C 551.81 145.08 551.98 134.09 552.02 123.12 Z" />
<path fill="#2e75b6" opacity="1.00" d=" M 414.78 129.10 C 422.53 129.95 430.31 130.61 438.04 131.61 C 438.21 135.74 437.82 139.89 436.74 143.89 C 428.94 143.17 421.14 142.43 413.37 141.42 C 413.24 137.26 413.61 133.09 414.78 129.10 Z" />
</g>
<g id="#ed7d31ff">
<path fill="#ed7d31" opacity="1.00" d=" M 272.96 96.81 C 281.26 92.71 290.91 93.45 299.81 94.68 C 307.82 96.02 316.31 97.93 322.56 103.46 C 328.53 108.62 329.14 117.94 325.76 124.72 C 323.29 129.62 318.31 132.59 313.28 134.32 C 305.30 137.24 297.23 140.29 290.23 145.21 C 286.58 147.86 282.98 151.38 282.39 156.07 C 281.97 159.74 281.68 163.91 284.01 167.04 C 286.04 169.80 290.58 170.65 293.05 167.97 C 296.48 164.27 297.18 159.02 298.22 154.29 C 306.41 154.03 314.60 153.77 322.79 153.51 C 322.17 159.37 320.21 165.73 314.72 168.77 C 306.20 173.57 295.87 172.46 286.57 171.23 C 277.68 169.67 267.74 167.53 261.83 160.09 C 255.70 151.34 259.68 137.76 269.30 133.30 C 279.04 128.88 289.71 125.99 298.20 119.18 C 301.68 116.50 304.56 112.60 304.62 108.05 C 305.04 104.01 304.35 98.45 299.88 96.95 C 297.21 95.57 294.08 97.17 292.60 99.51 C 290.09 103.32 289.45 107.95 288.45 112.31 C 280.29 112.32 272.14 112.48 263.99 112.52 C 264.65 106.37 267.11 99.76 272.96 96.81 Z" />
<path fill="#ed7d31" opacity="1.00" d=" M 365.86 99.29 C 373.01 98.55 380.25 97.39 387.44 98.37 C 389.87 116.59 392.50 134.78 395.00 152.98 C 395.48 156.64 396.21 160.28 396.25 163.98 C 386.79 167.13 376.84 168.42 366.99 169.60 C 358.61 170.27 348.98 170.62 342.10 164.98 C 336.39 159.63 337.32 151.12 335.85 144.08 C 334.64 138.62 335.22 132.42 339.32 128.26 C 345.12 121.23 354.61 119.72 363.11 118.51 C 364.88 118.13 367.53 118.20 368.04 115.98 C 367.63 110.39 366.56 104.86 365.86 99.29 M 361.40 121.53 C 355.12 124.14 356.01 132.34 356.65 137.86 C 358.26 146.57 358.02 155.86 361.90 163.98 C 363.92 168.83 370.58 169.31 374.31 166.25 C 375.40 164.63 374.55 162.62 374.48 160.85 C 372.59 148.19 371.06 135.48 369.07 122.84 C 368.30 119.33 363.80 121.01 361.40 121.53 Z" />
</g>
</svg>
